<svg width="448" height="512" viewBox="0 0 448 512" fill="none" xmlns="http://www.w3.org/2000/svg">
<g clip-path="url(#clip0_320_97)">
<path d="M80 104C66.7 104 56 93.3 56 80C56 66.7 66.7 56 80 56C93.3 56 104 66.7 104 80C104 93.3 93.3 104 80 104ZM112.4 153.2C140.4 140.8 160 112.7 160 80C160 35.8 124.2 0 80 0C35.8 0 0 35.8 0 80C0 112.8 19.7 141 48 153.3V358.7C19.7 371 0 399.2 0 432C0 476.2 35.8 512 80 512C124.2 512 160 476.2 160 432C160 399.2 140.3 371 112 358.7V272C138.7 292.1 172 304 208 304H294.7C307 332.3 335.2 352 368 352C412.2 352 448 316.2 448 272C448 227.8 412.2 192 368 192C335.2 192 307 211.7 294.7 240H208C158.1 240 117 201.9 112.4 153.2ZM80 456C66.7 456 56 445.3 56 432C56 418.7 66.7 408 80 408C93.3 408 104 418.7 104 432C104 445.3 93.3 456 80 456ZM392 272C392 285.3 381.3 296 368 296C354.7 296 344 285.3 344 272C344 258.7 354.7 248 368 248C381.3 248 392 258.7 392 272Z" fill="#23B123"/>
</g>
<defs>
<clipPath id="clip0_320_97">
<rect width="448" height="512" fill="white"/>
</clipPath>
</defs>
</svg>
