<svg width="512" height="512" viewBox="0 0 512 512" fill="none" xmlns="http://www.w3.org/2000/svg">
<g clip-path="url(#clip0_320_105)">
<path d="M320 488C320 497.5 314.4 506.1 305.8 509.9C297.2 513.7 287 512.2 280 505.8L200 433.8C194.9 429.2 192.1 422.8 192.1 416C192.1 409.2 195 402.7 200 398.2L280 326.2C287 319.9 297.2 318.3 305.8 322.1C314.4 325.9 320 334.5 320 344V384H336C371.3 384 400 355.3 400 320V153.3C371.7 141 352 112.8 352 80C352 35.8 387.8 0 432 0C476.2 0 512 35.8 512 80C512 112.8 492.3 141 464 153.3V320C464 390.7 406.7 448 336 448H320V488ZM456 80C456 66.7 445.3 56 432 56C418.7 56 408 66.7 408 80C408 93.3 418.7 104 432 104C445.3 104 456 93.3 456 80ZM192 24C192 14.5 197.6 5.9 206.2 2.1C214.8 -1.7 225 -0.2 232 6.2L312 78.2C317.1 82.8 319.9 89.2 319.9 96C319.9 102.8 317 109.3 312 113.8L232 185.8C225 192.1 214.8 193.7 206.2 189.9C197.6 186.1 192 177.5 192 168V128H176C140.7 128 112 156.7 112 192V358.7C140.3 371 160 399.2 160 432C160 476.2 124.2 512 80 512C35.8 512 0 476.2 0 432C0 399.2 19.7 371 48 358.7V192C48 121.3 105.3 64 176 64H192V24ZM56 432C56 445.3 66.7 456 80 456C93.3 456 104 445.3 104 432C104 418.7 93.3 408 80 408C66.7 408 56 418.7 56 432Z" fill="#23B123"/>
</g>
<defs>
<clipPath id="clip0_320_105">
<rect width="512" height="512" fill="white"/>
</clipPath>
</defs>
</svg>
